<svg width="52" height="52" viewBox="0 0 52 52" xmlns="http://www.w3.org/2000/svg">
  <defs>
    <linearGradient id="blueGradient" x1="0%" y1="0%" x2="100%" y2="100%">
      <stop offset="0%" stop-color="#195ac4" />
      <stop offset="100%" stop-color="#1626b3" />
    </linearGradient>
  </defs>
  
  <rect width="52" height="52" rx="14" fill="url(#blueGradient)" />
  
  <g transform="translate(14, 14)">
    <path fill="white" d="M19 14c1.66 0 3 1.34 3 3s-1.34 3-3 3-3-1.34-3-3 1.34-3 3-3zm-14 0c1.66 0 3 1.34 3 3s-1.34 3-3 3-3-1.34-3-3 1.34-3 3-3zm7.36-6.1c-1.33-2.33-3.17-3.9-5.36-3.9-1.73 0-3.37.99-4.55 2.54l.95.96C4.38 6.27 5.6 5.5 7 5.5c1.64 0 3.02 1.12 4.04 2.87l.5-2.25 3.46-1.73V2l5 2v3H17V6h-2.5l-2.14 2.62zM16.5 17c0-.83.67-1.5 1.5-1.5s1.5.67 1.5 1.5-.67 1.5-1.5 1.5-1.5-.67-1.5-1.5zM5 18.5c-.83 0-1.5-.67-1.5-1.5s.67-1.5 1.5-1.5 1.5.67 1.5 1.5-.67 1.5-1.5 1.5zM7.5 13H4v-2l5.5-3 4.15 1.42-1.31 1.7-2.67-1.91-.92.46z"/>
  </g>
</svg>